<svg xmlns="http://www.w3.org/2000/svg" viewBox="0 0 558 329"><defs><style>.cls-1{fill:#353535;}.cls-2,.cls-3,.cls-4,.cls-5{fill:none;stroke-miterlimit:10;}.cls-2{stroke:#262626;}.cls-3,.cls-4,.cls-5{stroke:#666;stroke-linecap:round;stroke-width:3px;}.cls-4{stroke-dasharray:1 5.97;}.cls-5{stroke-dasharray:1 6.02;}.cls-6{fill:#ee5450;}.cls-7{fill:#ea8953;}.cls-8{fill:#edd751;}.cls-9{fill:#cfed51;}.cls-10{fill:#68ed51;}.cls-11{fill:#51edcf;}.cls-12{fill:#51a6ed;}.cls-13{fill:#7e51ed;}.cls-14{fill:#eaf0f2;}</style></defs><title>SkillsGraph</title><g id="Layer_2" data-name="Layer 2"><g id="Layer_1-2" data-name="Layer 1"><path class="cls-1" d="M118,279H100a30,30,0,0,1-30-30V24A23.94,23.94,0,0,1,94,0h0a23.94,23.94,0,0,1,24,24Z"/><line class="cls-2" x1="70" y1="63.5" x2="118" y2="63.5"/><line class="cls-2" x1="70" y1="137.5" x2="118" y2="137.5"/><line class="cls-2" x1="70" y1="222.5" x2="118" y2="222.5"/><path class="cls-1" d="M180.9,279h-48V24a23.94,23.94,0,0,1,24-24h0a23.94,23.94,0,0,1,24,24Z"/><line class="cls-2" x1="132.9" y1="63.5" x2="180.9" y2="63.5"/><line class="cls-2" x1="132.9" y1="137.5" x2="180.9" y2="137.5"/><line class="cls-2" x1="132.9" y1="222.5" x2="180.9" y2="222.5"/><path class="cls-1" d="M243.7,279h-48V24a23.94,23.94,0,0,1,24-24h0a23.94,23.94,0,0,1,24,24Z"/><line class="cls-2" x1="195.7" y1="63.5" x2="243.7" y2="63.5"/><line class="cls-2" x1="195.7" y1="137.5" x2="243.7" y2="137.5"/><line class="cls-2" x1="195.7" y1="222.5" x2="243.7" y2="222.5"/><path class="cls-1" d="M306.8,279h-48V24a23.94,23.94,0,0,1,24-24h0a23.94,23.94,0,0,1,24,24Z"/><line class="cls-2" x1="258.8" y1="63.5" x2="306.8" y2="63.5"/><line class="cls-2" x1="258.8" y1="137.5" x2="306.8" y2="137.5"/><line class="cls-2" x1="258.8" y1="222.5" x2="306.8" y2="222.5"/><path class="cls-1" d="M369.2,279h-48V24a23.94,23.94,0,0,1,24-24h0a23.94,23.94,0,0,1,24,24Z"/><line class="cls-2" x1="321.2" y1="63.5" x2="369.2" y2="63.5"/><line class="cls-2" x1="321.2" y1="137.5" x2="369.2" y2="137.5"/><line class="cls-2" x1="321.2" y1="222.5" x2="369.2" y2="222.5"/><path class="cls-1" d="M432.1,279h-48V24a23.94,23.94,0,0,1,24-24h0a23.94,23.94,0,0,1,24,24Z"/><line class="cls-2" x1="384.1" y1="63.5" x2="432.1" y2="63.5"/><line class="cls-2" x1="384.1" y1="137.5" x2="432.1" y2="137.5"/><line class="cls-2" x1="384.1" y1="222.5" x2="432.1" y2="222.5"/><path class="cls-1" d="M495.1,279h-48V24a23.94,23.94,0,0,1,24-24h0a23.94,23.94,0,0,1,24,24Z"/><line class="cls-2" x1="447.1" y1="63.5" x2="495.1" y2="63.5"/><line class="cls-2" x1="447.1" y1="137.5" x2="495.1" y2="137.5"/><line class="cls-2" x1="447.1" y1="222.5" x2="495.1" y2="222.5"/><path class="cls-1" d="M528,279H510V24A23.94,23.94,0,0,1,534,0h0a23.94,23.94,0,0,1,24,24V249A30,30,0,0,1,528,279Z"/><line class="cls-2" x1="510" y1="63.5" x2="558" y2="63.5"/><line class="cls-2" x1="510" y1="137.5" x2="558" y2="137.5"/><line class="cls-2" x1="510" y1="222.5" x2="558" y2="222.5"/><line class="cls-3" x1="94.5" y1="305.5" x2="95" y2="305.5"/><line class="cls-4" x1="101" y1="305.5" x2="530" y2="305.5"/><line class="cls-3" x1="533" y1="305.5" x2="533.5" y2="305.5"/><line class="cls-3" x1="1.5" y1="34.5" x2="2" y2="34.5"/><line class="cls-5" x1="8" y1="34.5" x2="553" y2="34.5"/><line class="cls-3" x1="556" y1="34.5" x2="556.5" y2="34.5"/><line class="cls-3" x1="1.5" y1="85.5" x2="2" y2="85.5"/><line class="cls-5" x1="8" y1="85.5" x2="553" y2="85.5"/><line class="cls-3" x1="556" y1="85.5" x2="556.5" y2="85.5"/><line class="cls-3" x1="1.5" y1="136.5" x2="2" y2="136.5"/><line class="cls-5" x1="8" y1="136.5" x2="553" y2="136.5"/><line class="cls-3" x1="556" y1="136.5" x2="556.5" y2="136.5"/><line class="cls-3" x1="1.5" y1="187.5" x2="2" y2="187.5"/><line class="cls-5" x1="8" y1="187.5" x2="553" y2="187.5"/><line class="cls-3" x1="556" y1="187.5" x2="556.5" y2="187.5"/><line class="cls-3" x1="1.5" y1="238.5" x2="2" y2="238.5"/><line class="cls-5" x1="8" y1="238.5" x2="553" y2="238.5"/><line class="cls-3" x1="556" y1="238.5" x2="556.5" y2="238.5"/><circle class="cls-6" cx="97.5" cy="306" r="6"/><circle class="cls-7" cx="157" cy="306" r="6"/><circle class="cls-8" cx="220" cy="306" r="6"/><circle class="cls-9" cx="283" cy="306" r="6"/><circle class="cls-10" cx="345" cy="306" r="6"/><circle class="cls-11" cx="408" cy="306" r="6"/><circle class="cls-12" cx="471" cy="306" r="6"/><circle class="cls-13" cx="530.5" cy="306" r="6"/><path class="cls-11" d="M434.2,275.5a5.07,5.07,0,0,1-2.1-4.1V163a24,24,0,0,0-48,0V271.4a5.21,5.21,0,0,1-2.1,4.1l-4.9,3.5h62Z"/><path class="cls-14" d="M84.9,320.4v3.4h3.9v-3.4h1.1v8.1H88.8v-3.8H84.9v3.8h-1v-8.1Z"/><path class="cls-14" d="M93.2,321.3H90.7v-.9h6v.9H94.2v7.2H93.1v-7.2Z"/><path class="cls-14" d="M104.5,325c-.1-1.1-.1-2.5-.1-3.5h0c-.3.9-.6,2-1,3.1l-1.4,3.9h-.8l-1.3-3.8a25.42,25.42,0,0,1-.9-3.1h0c0,1-.1,2.4-.2,3.6l-.2,3.5h-1l.6-8.1h1.3l1.4,3.9c.3,1,.6,1.9.8,2.7h0a21.27,21.27,0,0,1,.9-2.7l1.4-3.9h1.3l.5,8.1h-1Z"/><path class="cls-14" d="M107.3,320.4h1v7.2h3.5v.9h-4.5Z"/><path class="cls-14" d="M342.2,328.2a5.18,5.18,0,0,1-2.1.4,3.76,3.76,0,0,1-4-4.1,4,4,0,0,1,4.2-4.2,3.54,3.54,0,0,1,1.9.4l-.3.9a3.81,3.81,0,0,0-1.6-.3,3,3,0,0,0-3.2,3.3,2.87,2.87,0,0,0,3.1,3.2,4.31,4.31,0,0,0,1.7-.3Z"/><path class="cls-14" d="M343.3,327.2a3.83,3.83,0,0,0,1.9.5c1.1,0,1.7-.6,1.7-1.4s-.4-1.2-1.5-1.6c-1.3-.5-2.1-1.2-2.1-2.3,0-1.3,1-2.2,2.6-2.2a4,4,0,0,1,1.8.4l-.3.9a3.94,3.94,0,0,0-1.5-.4c-1.1,0-1.5.7-1.5,1.2,0,.8.5,1.1,1.6,1.6,1.4.5,2.1,1.2,2.1,2.4s-.9,2.3-2.8,2.3a4.34,4.34,0,0,1-2.1-.5Z"/><path class="cls-14" d="M349.2,327.2a3.83,3.83,0,0,0,1.9.5c1.1,0,1.7-.6,1.7-1.4s-.4-1.2-1.5-1.6c-1.3-.5-2.1-1.2-2.1-2.3,0-1.3,1-2.2,2.6-2.2a4,4,0,0,1,1.8.4l-.3.9a3.94,3.94,0,0,0-1.5-.4c-1.1,0-1.5.7-1.5,1.2,0,.8.5,1.1,1.6,1.6,1.4.5,2.1,1.2,2.1,2.4s-.9,2.3-2.8,2.3a4.34,4.34,0,0,1-2.1-.5Z"/><path class="cls-14" d="M217.4,320.4h1v5.4c0,2.1-1.1,2.8-2.4,2.8a3.09,3.09,0,0,1-1.1-.2l.2-.9a2,2,0,0,0,.9.2c.9,0,1.5-.4,1.5-2v-5.3Z"/><path class="cls-14" d="M220,327.2a3.83,3.83,0,0,0,1.9.5c1.1,0,1.7-.6,1.7-1.4s-.4-1.2-1.5-1.6c-1.3-.5-2.1-1.2-2.1-2.3,0-1.3,1-2.2,2.6-2.2a4,4,0,0,1,1.8.4l-.3.9a3.94,3.94,0,0,0-1.5-.4c-1.1,0-1.5.7-1.5,1.2,0,.8.5,1.1,1.6,1.6,1.4.5,2.1,1.2,2.1,2.4s-.9,2.3-2.8,2.3a4.34,4.34,0,0,1-2.1-.5Z"/><path class="cls-14" d="M268.9,328.5v-8.1H270l2.6,4.1a24.33,24.33,0,0,1,1.5,2.6h0c-.1-1.1-.1-2.1-.1-3.3v-3.4h1v8.1h-1.1l-2.6-4.1a18.21,18.21,0,0,1-1.5-2.7h0c.1,1,.1,2,.1,3.3v3.5Z"/><path class="cls-14" d="M283.7,324.4c0,2.8-1.7,4.3-3.8,4.3s-3.6-1.7-3.6-4.1c0-2.6,1.6-4.2,3.8-4.2S283.7,322,283.7,324.4Zm-6.3.1c0,1.7.9,3.3,2.6,3.3s2.6-1.5,2.6-3.4c0-1.6-.8-3.3-2.6-3.3S277.4,322.7,277.4,324.5Z"/><path class="cls-14" d="M285,320.5a13.78,13.78,0,0,1,2.2-.2,4.5,4.5,0,0,1,3.3,1,3.84,3.84,0,0,1,1.1,2.9,4,4,0,0,1-1.2,3.1,4.89,4.89,0,0,1-3.6,1.2,10.89,10.89,0,0,1-1.9-.1v-7.9Zm1.1,7.2c.3,0,.6.1,1.1.1a3.06,3.06,0,0,0,3.4-3.4c0-1.9-1.1-3.1-3.3-3.1a4.12,4.12,0,0,0-1.2.1Z"/><path class="cls-14" d="M297.2,324.7h-3.1v2.9h3.5v.9H293v-8.1h4.4v.9h-3.3v2.6h3.1Z"/><path class="cls-14" d="M134.1,326l-.8,2.5h-1.1l2.7-8.1h1.3l2.8,8.1h-1.1L137,326Zm2.7-.8-.8-2.3a8.33,8.33,0,0,1-.4-1.5h0c-.1.5-.3,1-.4,1.5l-.8,2.3Z"/><path class="cls-14" d="M140.1,328.5v-8.1h1.1l2.6,4.1a24.33,24.33,0,0,1,1.5,2.6h0c-.1-1.1-.1-2.1-.1-3.3v-3.4h1v8.1h-1.1l-2.6-4.1a18.21,18.21,0,0,1-1.5-2.7h0c.1,1,.1,2,.1,3.3v3.5Z"/><path class="cls-14" d="M154.2,328.1a7.17,7.17,0,0,1-2.5.4,4,4,0,0,1-3-1.1,4.25,4.25,0,0,1-1.1-3,4.1,4.1,0,0,1,4.4-4.2,4.3,4.3,0,0,1,2,.4l-.3.9a4.18,4.18,0,0,0-1.8-.3,2.94,2.94,0,0,0-3.2,3.2c0,2.1,1.2,3.3,3.1,3.3a3.71,3.71,0,0,0,1.4-.2v-2.4h-1.6v-.8h2.7v3.8Z"/><path class="cls-14" d="M156.8,320.4v4.8c0,1.8.8,2.6,1.9,2.6s2-.8,2-2.6v-4.8h1.1v4.7c0,2.5-1.3,3.5-3.1,3.5s-2.9-.9-2.9-3.5v-4.8h1Z"/><path class="cls-14" d="M163.6,320.4h1v7.2h3.5v.9h-4.5Z"/><path class="cls-14" d="M170.5,326l-.8,2.5h-1.1l2.7-8.1h1.3l2.8,8.1h-1.1l-.9-2.5Zm2.7-.8-.8-2.3a8.33,8.33,0,0,1-.4-1.5h0c-.1.5-.3,1-.4,1.5l-.8,2.3Z"/><path class="cls-14" d="M176.6,320.5a11.24,11.24,0,0,1,2-.2,3,3,0,0,1,2.3.7,2,2,0,0,1,.6,1.5,2.19,2.19,0,0,1-1.5,2.1h0a2.07,2.07,0,0,1,1.2,1.6c.3,1.1.5,1.9.6,2.2h-1.1a10.94,10.94,0,0,1-.5-1.9c-.2-1.1-.7-1.5-1.6-1.6h-1v3.5h-1Zm1,3.7h1.1c1.1,0,1.8-.6,1.8-1.5s-.8-1.5-1.9-1.5a2.24,2.24,0,0,0-1,.1v2.9Z"/><path class="cls-14" d="M394.1,328.2a5.18,5.18,0,0,1-2.1.4,3.76,3.76,0,0,1-4-4.1,4,4,0,0,1,4.2-4.2,3.54,3.54,0,0,1,1.9.4l-.3.9a3.81,3.81,0,0,0-1.6-.3,3,3,0,0,0-3.2,3.3,2.87,2.87,0,0,0,3.1,3.2,4.31,4.31,0,0,0,1.7-.3Z"/><path class="cls-14" d="M398.5,322.1v2.8h2.7v.7h-2.7v2.8h-.8v-2.8H395v-.7h2.7v-2.8Z"/><path class="cls-14" d="M405.6,322.1v2.8h2.7v.7h-2.7v2.8h-.8v-2.8h-2.7v-.7h2.7v-2.8Z"/><path class="cls-14" d="M408.8,329l3.3-8.7h.8l-3.4,8.7Z"/><path class="cls-14" d="M419.5,328.2a5.18,5.18,0,0,1-2.1.4,3.76,3.76,0,0,1-4-4.1,4,4,0,0,1,4.2-4.2,3.54,3.54,0,0,1,1.9.4l-.3.9a3.81,3.81,0,0,0-1.6-.3,3,3,0,0,0-3.2,3.3,2.87,2.87,0,0,0,3.1,3.2,4.31,4.31,0,0,0,1.7-.3Z"/><path class="cls-14" d="M420.8,320.4h1v7.2h3.5v.9h-4.5Z"/><path class="cls-14" d="M427.5,320.4v8.1h-1v-8.1Z"/><path class="cls-14" d="M467.5,321.3H465v-.9h6v.9h-2.5v7.2h-1.1v-7.2Z"/><path class="cls-14" d="M471.8,327.2a3.83,3.83,0,0,0,1.9.5c1.1,0,1.7-.6,1.7-1.4s-.4-1.2-1.5-1.6c-1.3-.5-2.1-1.2-2.1-2.3,0-1.3,1-2.2,2.6-2.2a4,4,0,0,1,1.8.4l-.3.9a3.94,3.94,0,0,0-1.5-.4c-1.1,0-1.5.7-1.5,1.2,0,.8.5,1.1,1.6,1.6,1.4.5,2.1,1.2,2.1,2.4s-.9,2.3-2.8,2.3a4.34,4.34,0,0,1-2.1-.5Z"/><path class="cls-14" d="M530.6,328.2a5.18,5.18,0,0,1-2.1.4,3.76,3.76,0,0,1-4-4.1,4,4,0,0,1,4.2-4.2,3.54,3.54,0,0,1,1.9.4l-.3.9a3.81,3.81,0,0,0-1.6-.3,3,3,0,0,0-3.2,3.3,2.87,2.87,0,0,0,3.1,3.2,4.31,4.31,0,0,0,1.7-.3Z"/><path class="cls-14" d="M532.1,328.5l.3-2.4h-1v-.7h1.1l.2-1.7h-1V323h1.1l.3-2.3h.7l-.3,2.3h1.2l.3-2.3h.7l-.3,2.3h1v.7h-1.1l-.2,1.7h1v.7H535l-.3,2.4H534l.3-2.4h-1.2l-.3,2.4h-.7Zm2.4-3,.2-1.7h-1.2l-.2,1.7Z"/><path class="cls-12" d="M497.2,275.5a5.07,5.07,0,0,1-2.1-4.1V134a24,24,0,0,0-48,0V271.4a5.21,5.21,0,0,1-2.1,4.1l-4.9,3.5h62Z"/><path class="cls-10" d="M371.3,275.5a5.07,5.07,0,0,1-2.1-4.1V134a24,24,0,0,0-48,0V271.4a5.21,5.21,0,0,1-2.1,4.1l-4.9,3.5h62Z"/><path class="cls-9" d="M308.9,275.5a5.07,5.07,0,0,1-2.1-4.1V155a24,24,0,0,0-48,0V271.4a5.21,5.21,0,0,1-2.1,4.1l-4.9,3.5h62Z"/><path class="cls-8" d="M245.8,275.5a5.07,5.07,0,0,1-2.1-4.1V88a24,24,0,1,0-48,0V271.4a5.21,5.21,0,0,1-2.1,4.1l-4.9,3.5h62Z"/><path class="cls-7" d="M183,275.5a5.07,5.07,0,0,1-2.1-4.1V117a24,24,0,0,0-48,0V271.4a5.21,5.21,0,0,1-2.1,4.1l-4.9,3.5h62Z"/><path class="cls-6" d="M120.1,275.5a5.07,5.07,0,0,1-2.1-4.1V111a24,24,0,0,0-48,0V249a30.09,30.09,0,0,0,30,30h25Z"/><path class="cls-14" d="M.7,225.4a10.07,10.07,0,0,1,1.9-.2,3.4,3.4,0,0,1,2.2.6,1.75,1.75,0,0,1,.7,1.4A1.89,1.89,0,0,1,4.1,229h0a2.06,2.06,0,0,1,1.7,2,2.18,2.18,0,0,1-.7,1.6,4.25,4.25,0,0,1-2.8.8,6.66,6.66,0,0,1-1.6-.1Zm1,3.3h.9c1.1,0,1.8-.6,1.8-1.4S3.7,226,2.6,226c-.5,0-.8,0-.9.1Zm0,3.9h.9c1.1,0,2.1-.4,2.1-1.6s-.9-1.6-2.1-1.6H1.7Z"/><path class="cls-14" d="M11.4,229.6H8.3v2.9h3.5v.9H7.3v-8.1h4.4v.9H8.4v2.6h3.1v.8Z"/><path class="cls-14" d="M19.3,233a7.17,7.17,0,0,1-2.5.4,4,4,0,0,1-3-1.1,4.25,4.25,0,0,1-1.1-3,4.1,4.1,0,0,1,4.4-4.2,4.3,4.3,0,0,1,2,.4l-.3.9a4.18,4.18,0,0,0-1.8-.3,2.94,2.94,0,0,0-3.2,3.2c0,2.1,1.2,3.3,3.1,3.3a3.71,3.71,0,0,0,1.4-.2V230H16.7v-.8h2.7V233Z"/><path class="cls-14" d="M21.9,225.3v8.1h-1v-8.1Z"/><path class="cls-14" d="M23.7,233.4v-8.1h1.1l2.6,4.1a24.33,24.33,0,0,1,1.5,2.6h0c-.1-1.1-.1-2.1-.1-3.3v-3.4h1v8.1H28.7l-2.6-4.1a18.21,18.21,0,0,1-1.5-2.7h0c.1,1,.1,2,.1,3.3v3.5h-1Z"/><path class="cls-14" d="M31.6,233.4v-8.1h1.1l2.6,4.1a24.33,24.33,0,0,1,1.5,2.6h0c-.1-1.1-.1-2.1-.1-3.3v-3.4h1v8.1H36.6L34,229.3a18.21,18.21,0,0,1-1.5-2.7h0c.1,1,.1,2,.1,3.3v3.5h-1Z"/><path class="cls-14" d="M43.7,229.6H40.6v2.9h3.5v.9H39.6v-8.1H44v.9H40.7v2.6h3.1v.8Z"/><path class="cls-14" d="M45.4,225.4a11.24,11.24,0,0,1,2-.2,3,3,0,0,1,2.3.7,2,2,0,0,1,.6,1.5,2.19,2.19,0,0,1-1.5,2.1h0a2.07,2.07,0,0,1,1.2,1.6c.3,1.1.5,1.9.6,2.2H49.5a10.94,10.94,0,0,1-.5-1.9c-.2-1.1-.7-1.5-1.6-1.6h-1v3.5h-1Zm1.1,3.7h1.1c1.1,0,1.8-.6,1.8-1.5s-.8-1.5-1.9-1.5a2.24,2.24,0,0,0-1,.1Z"/><path class="cls-14" d="M2,179.9l-.8,2.5H.1l2.7-8.1H4.1l2.8,8.1H5.8l-.9-2.5Zm2.7-.8-.8-2.3a8.33,8.33,0,0,1-.4-1.5h0c-.1.5-.3,1-.4,1.5l-.8,2.3Z"/><path class="cls-14" d="M9.2,182.4l-2.6-8.1H7.7l1.3,4q.45,1.65.9,3h0c.2-.9.6-2,.9-3l1.4-4h1.1l-2.9,8.1Z"/><path class="cls-14" d="M18.3,178.6H15.2v2.9h3.5v.9H14.2v-8.1h4.4v.9H15.3v2.6h3.1v.8Z"/><path class="cls-14" d="M20,174.4a11.24,11.24,0,0,1,2-.2,3,3,0,0,1,2.3.7,2,2,0,0,1,.6,1.5,2.19,2.19,0,0,1-1.5,2.1h0a2.07,2.07,0,0,1,1.2,1.6c.3,1.1.5,1.9.6,2.2H24.1a10.94,10.94,0,0,1-.5-1.9c-.2-1.1-.7-1.5-1.6-1.6H21v3.5H20Zm1,3.7h1.1c1.1,0,1.8-.6,1.8-1.5s-.8-1.5-1.9-1.5a2.24,2.24,0,0,0-1,.1Z"/><path class="cls-14" d="M27.8,179.9l-.8,2.5H25.9l2.7-8.1h1.3l2.8,8.1H31.6l-.9-2.5Zm2.7-.8-.8-2.3a8.33,8.33,0,0,1-.4-1.5h0c-.1.5-.3,1-.4,1.5l-.8,2.3Z"/><path class="cls-14" d="M39.8,182.1a7.17,7.17,0,0,1-2.5.4,4,4,0,0,1-3-1.1,4.25,4.25,0,0,1-1.1-3,4.1,4.1,0,0,1,4.4-4.2,4.3,4.3,0,0,1,2,.4l-.3.9a4.18,4.18,0,0,0-1.8-.3,2.94,2.94,0,0,0-3.2,3.2c0,2.1,1.2,3.3,3.1,3.3a3.71,3.71,0,0,0,1.4-.2V179H37.2v-.8h2.7v3.9Z"/><path class="cls-14" d="M45.6,178.6H42.5v2.9H46v.9H41.5v-8.1h4.4v.9H42.6v2.6h3.1v.8Z"/><path class="cls-14" d="M.7,123.5a10.31,10.31,0,0,1,2-.2A3.17,3.17,0,0,1,5,124a2.41,2.41,0,0,1,.7,1.7,2.35,2.35,0,0,1-.6,1.7,3.49,3.49,0,0,1-2.5.9,2,2,0,0,1-.8-.1v3.2H.8v-7.9Zm1,3.9a2.22,2.22,0,0,0,.9.1c1.3,0,2-.6,2-1.7s-.8-1.6-1.9-1.6a2.51,2.51,0,0,0-1,.1Z"/><path class="cls-14" d="M7.1,123.5a11.24,11.24,0,0,1,2-.2,3,3,0,0,1,2.3.7,2,2,0,0,1,.6,1.5,2.19,2.19,0,0,1-1.5,2.1h0a2.07,2.07,0,0,1,1.2,1.6c.3,1.1.5,1.9.6,2.2H11.2a10.94,10.94,0,0,1-.5-1.9c-.2-1.1-.7-1.5-1.6-1.6h-1v3.5h-1Zm1,3.7H9.2c1.1,0,1.8-.6,1.8-1.5s-.8-1.5-1.9-1.5a2.24,2.24,0,0,0-1,.1Z"/><path class="cls-14" d="M20.5,127.4c0,2.8-1.7,4.3-3.8,4.3s-3.6-1.7-3.6-4.1c0-2.6,1.6-4.2,3.8-4.2S20.5,125,20.5,127.4Zm-6.3.1c0,1.7.9,3.3,2.6,3.3s2.6-1.5,2.6-3.4c0-1.6-.8-3.3-2.6-3.3S14.2,125.7,14.2,127.5Z"/><path class="cls-14" d="M4.9,76.7H1.8v2.9H5.3v.9H.8V72.4H5.2v.9H1.9v2.6H5v.8Z"/><path class="cls-14" d="M11,80.5l-1-1.8a14.56,14.56,0,0,1-.9-1.6h0a14.56,14.56,0,0,1-.9,1.6l-1,1.8H6l2.5-4.1-2.4-4H7.3l1.1,1.9a9.14,9.14,0,0,1,.7,1.4h0a9.14,9.14,0,0,1,.7-1.4l1.1-1.9h1.2L9.6,76.3l2.5,4.1H11Z"/><path class="cls-14" d="M13.4,72.5a10.31,10.31,0,0,1,2-.2,3.17,3.17,0,0,1,2.3.7,2.41,2.41,0,0,1,.7,1.7,2.35,2.35,0,0,1-.6,1.7,3.49,3.49,0,0,1-2.5.9,2,2,0,0,1-.8-.1v3.2h-1V72.5Zm1.1,3.9a2.22,2.22,0,0,0,.9.1c1.3,0,2-.6,2-1.7s-.8-1.6-1.9-1.6a2.51,2.51,0,0,0-1,.1Z"/><path class="cls-14" d="M24,76.7H20.9v2.9h3.5v.9H19.9V72.4h4.4v.9H21v2.6h3Z"/><path class="cls-14" d="M25.7,72.6a11.24,11.24,0,0,1,2-.2,3,3,0,0,1,2.3.7,2,2,0,0,1,.6,1.5,2.19,2.19,0,0,1-1.5,2.1h0a2.07,2.07,0,0,1,1.2,1.6c.3,1.1.5,1.9.6,2.2H29.8a10.94,10.94,0,0,1-.5-1.9c-.2-1.1-.7-1.5-1.6-1.6h-1v3.5h-1Zm1.1,3.6h1.1c1.1,0,1.8-.6,1.8-1.5s-.8-1.5-1.9-1.5a2.24,2.24,0,0,0-1,.1Z"/><path class="cls-14" d="M33.8,73.3H31.3v-.9h6v.9H34.8v7.2H33.7V73.3Z"/><path class="cls-14" d="M.7,29.6V21.5H1.8l2.6,4.1a24.34,24.34,0,0,1,1.5,2.6h0c-.1-1.1-.1-2.1-.1-3.3V21.5h1v8.1H5.7L3.1,25.5a18.21,18.21,0,0,1-1.5-2.7h0c.1,1,.1,2,.1,3.3v3.5Z"/><path class="cls-14" d="M9.6,21.5v8.1h-1V21.5Z"/><path class="cls-14" d="M11.5,29.6V21.5h1.1l2.6,4.1a24.34,24.34,0,0,1,1.5,2.6h0c-.1-1.1-.1-2.1-.1-3.3V21.5h1v8.1H16.5l-2.6-4.1a18.21,18.21,0,0,1-1.5-2.7h0c.1,1,.1,2,.1,3.3v3.5Z"/><path class="cls-14" d="M21,21.5h1v5.4c0,2.1-1.1,2.8-2.4,2.8a3.09,3.09,0,0,1-1.1-.2l.2-.9a2,2,0,0,0,.9.2c.9,0,1.5-.4,1.5-2V21.5Z"/><path class="cls-14" d="M25.1,27l-.8,2.5H23.2l2.7-8.1h1.3L30,29.5H28.9L28,27Zm2.7-.8L27,23.9a8.33,8.33,0,0,1-.4-1.5h0c-.1.5-.3,1-.4,1.5l-.8,2.3Z"/><path class="cls-13" d="M534,42a23.94,23.94,0,0,0-24,24V271.4a5.21,5.21,0,0,1-2.1,4.1L503,279h25a30.09,30.09,0,0,0,30-30V66A23.94,23.94,0,0,0,534,42Z"/></g></g></svg>